<?xml version="1.0" standalone="no"?>
<!DOCTYPE svg PUBLIC "-//W3C//DTD SVG 20010904//EN"
 "http://www.w3.org/TR/2001/REC-SVG-20010904/DTD/svg10.dtd">
<svg version="1.0" xmlns="http://www.w3.org/2000/svg"
 width="815.000000pt" height="815.000000pt" viewBox="0 0 815.000000 815.000000"
 preserveAspectRatio="xMidYMid meet">
<metadata>
Created by potrace 1.11, written by Peter Selinger 2001-2013
</metadata>
<g transform="translate(0.000000,815.000000) scale(0.100000,-0.100000)"
fill="#000000" stroke="none">
<path d="M3779 8136 c-2 -2 -42 -7 -89 -10 -47 -4 -98 -9 -115 -11 -206 -28
-237 -33 -325 -51 -683 -139 -1279 -425 -1810 -868 -168 -140 -427 -409 -584
-606 -135 -171 -310 -449 -420 -667 -153 -306 -292 -718 -351 -1036 -30 -170
-31 -171 -50 -322 -3 -27 -8 -63 -10 -80 -13 -102 -20 -260 -20 -465 1 -284 8
-375 51 -655 5 -28 51 -252 59 -285 50 -201 178 -577 204 -600 3 -3 7 -13 9
-22 1 -10 16 -46 33 -80 119 -245 188 -370 201 -362 7 4 8 2 4 -4 -4 -6 6 -31
21 -54 15 -24 35 -56 44 -73 10 -16 22 -29 29 -27 6 1 9 -2 5 -7 -8 -14 25
-62 38 -54 6 3 7 1 3 -6 -4 -6 2 -24 14 -39 11 -15 41 -54 66 -87 106 -142
165 -211 176 -207 5 1 7 -2 3 -7 -6 -10 58 -81 208 -235 63 -65 80 -77 88 -66
8 11 9 9 4 -7 -4 -13 -2 -23 4 -23 6 0 30 -19 54 -42 63 -63 159 -144 165
-140 3 2 8 -1 11 -6 7 -11 78 -70 111 -92 12 -8 29 -21 36 -28 8 -8 21 -11 29
-8 9 3 12 0 8 -10 -3 -8 1 -14 11 -14 9 0 16 -3 16 -7 0 -11 72 -59 82 -55 4
1 8 -2 8 -7 0 -11 130 -94 148 -94 6 0 12 -5 12 -10 0 -5 7 -6 16 -3 9 3 12 2
9 -5 -4 -6 2 -13 14 -16 12 -3 21 -10 21 -15 0 -6 11 -8 24 -6 16 3 23 1 20
-7 -5 -11 62 -50 83 -48 7 0 11 -2 8 -6 -2 -4 25 -21 60 -39 52 -26 63 -28 59
-14 -2 9 1 7 7 -5 7 -13 16 -23 21 -23 5 0 37 -13 71 -29 69 -32 95 -43 116
-47 8 -1 17 -6 20 -11 5 -7 41 -22 116 -48 16 -6 17 -5 5 4 -9 7 -11 11 -3 11
7 0 17 -8 22 -17 9 -16 12 -16 21 -3 8 13 10 13 10 -2 0 -18 8 -22 48 -20 12
1 20 -3 18 -7 -5 -8 61 -32 96 -36 9 0 23 -7 32 -14 9 -8 16 -11 16 -8 0 3 20
-1 44 -8 34 -10 46 -11 50 -2 2 7 5 4 5 -5 1 -14 8 -17 31 -14 17 2 30 -1 30
-6 0 -5 4 -6 10 -3 5 3 10 1 10 -4 0 -6 5 -11 11 -11 5 0 7 5 3 11 -4 7 -1 10
7 7 8 -3 13 -10 12 -15 -1 -6 13 -9 32 -7 19 1 35 -1 35 -6 0 -4 16 -10 35
-12 22 -2 34 0 32 6 -2 6 -12 11 -23 11 -10 0 -25 4 -33 9 -11 7 -11 10 0 17
8 5 22 6 31 3 9 -3 21 2 26 12 6 12 9 5 9 -25 0 -23 2 -43 5 -46 2 -3 28 -6
58 -7 36 -2 55 1 58 10 4 14 -19 12 -30 -3 -5 -6 -8 -5 -8 3 0 6 -5 12 -11 12
-5 0 -7 -5 -3 -12 5 -7 3 -8 -7 -2 -8 5 -21 9 -29 9 -9 0 -15 12 -16 34 -1 19
2 28 6 21 4 -7 10 -8 13 -3 9 14 52 8 52 -7 0 -7 6 -15 14 -18 8 -3 11 0 7 6
-3 5 1 13 9 16 12 4 13 2 6 -13 -6 -10 -7 -21 -4 -25 4 -4 13 4 20 16 8 15 12
18 13 8 0 -13 1 -13 10 0 6 9 10 10 10 3 0 -7 17 -12 43 -12 109 -2 147 -6
147 -14 0 -4 -8 -6 -18 -3 -13 4 -19 1 -19 -9 0 -9 6 -14 14 -11 8 3 11 1 8
-4 -3 -6 -2 -10 2 -10 5 0 13 8 20 19 8 14 22 18 55 17 24 -1 48 -4 53 -7 6
-3 42 -5 82 -4 39 0 69 -3 66 -7 -2 -5 0 -8 6 -8 5 0 12 6 14 13 4 9 6 8 6 -2
1 -10 4 -11 15 -2 10 9 16 8 26 -4 18 -21 35 -19 19 3 -13 15 -12 16 4 3 14
-11 17 -11 17 0 0 12 2 12 9 0 6 -9 11 -10 15 -2 4 6 12 9 17 5 6 -4 6 -11 -1
-19 -9 -11 -7 -14 9 -12 14 1 20 6 16 15 -2 7 -1 11 4 7 5 -3 12 1 14 7 4 10
6 10 6 1 1 -7 6 -13 12 -13 5 0 7 6 3 13 -5 9 -4 9 6 0 7 -6 20 -9 29 -6 11 4
10 1 -4 -10 -14 -11 -25 -13 -40 -6 -19 10 -19 9 -2 -4 10 -9 14 -18 9 -21 -5
-3 -12 -2 -16 1 -10 10 -36 12 -36 3 0 -4 -13 -6 -30 -5 -18 2 -27 -1 -23 -8
3 -6 1 -7 -6 -3 -6 4 -9 12 -6 17 4 5 1 9 -4 9 -6 0 -11 -5 -11 -12 0 -6 -7
-3 -15 8 -11 14 -14 15 -9 3 3 -10 0 -20 -7 -25 -9 -5 -10 -2 -6 9 3 9 1 19
-5 23 -7 5 -8 2 -3 -6 6 -9 4 -11 -4 -6 -8 5 -11 2 -9 -9 2 -10 -3 -20 -9 -22
-7 -3 -13 0 -13 7 0 6 -5 8 -10 5 -6 -4 -8 -11 -5 -16 3 -5 -1 -6 -9 -3 -12 5
-11 9 5 25 31 31 19 49 -18 26 -6 -4 -14 -3 -18 3 -11 18 -23 10 -21 -13 2
-14 -2 -24 -10 -24 -7 0 -10 5 -7 10 4 6 1 7 -8 2 -19 -12 -98 -14 -96 -2 1 5
-5 12 -13 15 -8 2 -12 1 -8 -3 4 -5 4 -13 -1 -19 -6 -8 -1 -12 17 -13 137 -7
173 -11 178 -16 3 -3 16 -2 29 3 15 6 27 4 35 -3 10 -9 11 -9 6 1 -4 6 -2 12
3 12 6 0 11 -5 11 -11 0 -8 4 -8 14 0 9 7 17 8 20 2 7 -10 24 -10 43 2 6 4 14
1 16 -5 4 -10 6 -10 6 0 1 6 6 12 12 12 5 0 8 -4 5 -8 -6 -11 34 -9 51 1 7 5
13 4 13 0 0 -5 14 -9 30 -9 17 -1 30 3 30 8 0 6 8 4 17 -3 11 -10 14 -10 9 -2
-4 7 -2 13 3 13 6 0 11 -6 11 -12 0 -10 3 -9 9 1 6 9 11 10 15 2 4 -6 12 -9
17 -5 5 3 7 9 4 14 -3 5 -1 11 5 15 5 3 10 0 10 -7 0 -9 17 -13 60 -13 33 0
60 3 60 7 0 4 5 8 11 8 5 0 7 -6 3 -13 -4 -7 -3 -9 2 -4 5 5 9 12 10 15 2 18
17 42 25 42 6 0 5 -8 -1 -19 -15 -28 -13 -30 23 -27 25 2 31 7 29 21 -3 16 -1
17 12 6 9 -7 13 -18 9 -24 -4 -6 -1 -7 8 -1 8 5 21 7 30 6 19 -3 33 24 18 33
-11 8 -2 25 13 25 6 0 8 -3 5 -6 -9 -9 11 -44 24 -44 6 0 8 7 5 16 -4 10 -2
14 6 11 7 -2 12 -9 11 -15 -2 -6 7 -9 20 -5 12 3 32 5 44 6 12 1 20 4 17 8 -2
4 3 10 12 13 25 10 27 7 13 -11 -13 -16 -12 -17 3 -5 9 8 22 11 27 8 6 -4 8 6
6 25 -4 26 -2 29 10 19 7 -6 13 -17 11 -23 -1 -7 -1 -9 1 -5 3 4 14 2 25 -5
16 -9 22 -9 25 1 3 6 10 9 16 5 7 -4 5 1 -3 11 -13 16 -12 20 8 36 12 10 22
21 22 25 0 4 -6 2 -14 -4 -11 -10 -14 -7 -12 12 1 16 8 24 22 25 18 1 20 -4
19 -53 -1 -30 1 -52 5 -50 4 3 6 16 4 31 -2 18 1 24 11 20 9 -3 12 0 9 8 -3 7
1 18 9 25 11 9 17 8 27 -4 7 -8 18 -15 24 -15 6 0 3 5 -6 11 -9 5 -16 15 -14
22 1 6 1 9 -1 4 -3 -4 -8 -5 -13 -2 -5 3 -16 -2 -25 -11 -9 -9 -19 -13 -22
-10 -10 10 19 34 50 41 19 5 27 3 27 -6 0 -8 5 -6 13 5 7 9 17 16 22 15 6 -1
17 0 25 4 46 17 78 24 98 21 16 -3 21 0 16 8 -5 8 0 9 14 6 12 -4 20 -2 17 3
-3 5 12 12 35 15 22 4 43 11 46 15 3 5 11 9 17 9 7 0 6 -4 -3 -10 -9 -6 -10
-10 -3 -10 7 0 16 7 21 16 5 9 11 15 13 14 2 -1 16 3 32 9 15 6 38 15 51 21
21 8 28 5 47 -18 l21 -27 -16 26 c-15 26 -14 27 17 40 18 8 35 13 40 11 4 -1
7 3 7 9 0 7 10 9 25 7 14 -3 23 -1 22 6 -1 5 3 10 8 11 6 0 24 8 42 18 24 13
33 14 36 4 4 -7 6 -6 6 4 1 16 34 33 59 30 6 -1 12 3 12 9 0 6 4 9 9 6 5 -4
11 -3 13 1 5 12 64 43 81 43 9 0 17 3 19 8 2 4 32 23 68 41 36 19 82 45 103
58 20 13 37 20 37 16 0 -5 5 0 11 9 5 10 15 18 20 18 6 0 37 18 69 40 32 22
61 40 64 40 3 0 34 20 69 45 35 24 68 41 72 37 5 -4 5 -2 1 5 -7 14 27 36 39
25 3 -4 5 -2 3 3 -2 6 -1 10 2 10 3 0 20 15 39 33 19 17 41 32 49 32 9 0 13 3
9 6 -3 3 30 35 73 70 70 56 150 127 201 176 10 9 20 14 23 10 3 -3 6 2 6 11 0
9 12 23 28 31 15 8 23 15 19 16 -4 0 2 10 13 22 18 20 22 21 31 8 9 -12 10
-12 5 3 -4 12 6 30 32 55 20 21 62 67 92 102 30 36 65 75 77 87 13 12 23 25
23 29 0 4 10 16 23 28 12 11 23 23 23 26 0 10 79 110 87 110 4 0 5 5 2 10 -3
6 -2 10 3 10 5 0 14 12 20 26 7 14 16 23 21 19 5 -3 13 0 17 6 4 8 3 9 -4 5
-7 -4 -12 -5 -12 -2 0 7 61 95 83 120 9 11 17 25 17 31 0 7 11 24 25 39 13 14
25 29 25 31 0 3 0 9 0 13 0 5 8 17 18 28 10 10 19 22 20 26 9 32 37 76 45 71
6 -3 7 -1 3 5 -5 9 48 126 64 142 3 3 19 34 34 70 16 36 39 88 52 115 13 28
36 84 52 125 16 41 33 84 37 95 5 11 9 22 10 25 0 3 16 49 34 102 18 54 32 99
31 100 -1 2 4 17 10 33 7 17 13 37 15 45 2 8 8 35 15 60 7 25 13 50 15 55 3
18 19 90 20 95 1 3 4 14 8 25 7 21 42 221 51 293 19 139 23 183 32 307 7 103
7 425 0 505 -2 25 -7 86 -11 135 -4 50 -9 99 -11 110 -2 11 -7 40 -10 65 -5
39 -45 260 -60 330 -10 45 -64 255 -71 270 -3 8 -7 20 -8 25 -4 18 -65 200
-74 220 -5 11 -17 40 -27 65 -9 25 -28 70 -42 99 -13 30 -24 63 -25 73 -1 9
-7 20 -14 22 -7 3 -13 11 -13 18 0 12 -81 176 -124 253 -80 142 -125 216 -182
298 -30 43 -54 83 -54 88 0 5 -3 9 -7 9 -5 0 -19 17 -33 38 -14 20 -27 39 -30
42 -3 3 -21 25 -40 50 -124 161 -379 432 -524 555 -32 28 -68 58 -80 69 -133
117 -404 302 -611 419 -91 51 -348 174 -445 212 -52 20 -104 41 -115 46 -52
23 -310 103 -435 134 -52 13 -314 64 -355 70 -27 3 -59 7 -70 9 -11 2 -54 7
-95 11 -41 4 -86 9 -100 12 -27 6 -576 14 -581 9z m-2551 -6911 c-3 -3 -9 2
-12 12 -6 14 -5 15 5 6 7 -7 10 -15 7 -18z m253 -228 c-10 -9 -11 -8 -5 6 3
10 9 15 12 12 3 -3 0 -11 -7 -18z m-30 -4 c13 -16 12 -17 -3 -4 -17 13 -22 21
-14 21 2 0 10 -8 17 -17z m124 -83 c3 -6 -1 -7 -9 -4 -18 7 -21 14 -7 14 6 0
13 -4 16 -10z m310 -210 c1 -16 -1 -27 -4 -24 -3 3 -6 19 -7 35 -1 16 1 27 4
24 3 -3 6 -19 7 -35z m146 -67 c13 -16 12 -17 -3 -4 -17 13 -22 21 -14 21 2 0
10 -8 17 -17z m-21 -18 c14 -19 14 -19 -2 -6 -10 7 -18 18 -18 24 0 6 1 8 3 6
1 -2 9 -13 17 -24z m57 -20 c0 -8 -3 -13 -5 -10 -3 3 -12 -1 -21 -7 -10 -8 -9
-4 3 10 23 26 23 26 23 7z m53 -9 c0 -2 -7 -7 -16 -10 -8 -3 -12 -2 -9 4 6 10
25 14 25 6z m26 -18 c4 -6 3 -8 -4 -4 -17 10 -25 -13 -11 -32 12 -16 12 -16
-6 0 -15 14 -16 20 -5 32 15 19 17 19 26 4z m61 -48 c1 -11 -2 -20 -7 -20 -6
0 -7 17 -1 38 3 8 7 -1 8 -18z m50 -26 c-3 -3 -12 -4 -19 -1 -8 3 -5 6 6 6 11
1 17 -2 13 -5z m88 -13 c3 -5 2 -12 -3 -15 -5 -3 -9 1 -9 9 0 17 3 19 12 6z
m-95 -13 c0 -4 -4 -8 -9 -8 -6 0 -12 4 -15 8 -3 5 1 9 9 9 8 0 15 -4 15 -9z
m62 -20 c-8 -8 -9 -4 -5 13 4 13 8 18 11 10 2 -7 -1 -18 -6 -23z m53 1 c-3
-12 -7 -24 -10 -27 -3 -3 -3 5 -1 19 6 30 5 29 10 29 3 0 3 -10 1 -21z m45
-20 c0 -15 -18 -19 -23 -6 -3 8 1 14 9 14 8 0 14 -4 14 -8z m23 -46 c-3 -7 -6
-13 -8 -13 -2 0 -5 6 -8 13 -3 8 1 14 8 14 7 0 11 -6 8 -14z m71 1 c3 -8 0
-16 -7 -20 -7 -4 -9 -4 -5 1 4 4 0 13 -8 20 -15 11 -15 12 -1 12 9 0 18 -6 21
-13z m39 -4 c3 -11 1 -18 -4 -14 -5 3 -9 12 -9 20 0 20 7 17 13 -6z m42 -2 c5
4 5 1 1 -6 -6 -10 -11 -10 -22 -1 -8 6 -14 14 -14 16 0 3 6 0 13 -6 8 -6 18
-7 22 -3z m22 -30 c2 -17 0 -19 -7 -8 -5 8 -6 18 -4 22 8 12 10 10 11 -14z
m-77 -3 c0 -8 -2 -15 -4 -15 -2 0 -6 7 -10 15 -3 8 -1 15 4 15 6 0 10 -7 10
-15z m113 -2 c-3 -7 -6 -13 -8 -13 -2 0 -5 6 -8 13 -3 8 1 14 8 14 7 0 11 -6
8 -14z m-73 -2 c0 -6 -4 -12 -8 -15 -5 -3 -9 1 -9 9 0 8 4 15 9 15 4 0 8 -4 8
-9z m111 -14 c-8 -8 -14 -7 -23 2 -11 10 -9 11 6 5 15 -6 17 -4 11 6 -6 9 -4
11 4 5 9 -5 10 -10 2 -18z m-51 -12 c0 -7 -30 -13 -34 -7 -3 4 4 9 15 9 10 1
19 0 19 -2z m35 -13 c-3 -3 -11 0 -18 7 -9 10 -8 11 6 5 10 -3 15 -9 12 -12z
m45 14 c0 -2 -7 -7 -16 -10 -8 -3 -12 -2 -9 4 6 10 25 14 25 6z m53 -21 c-7
-21 -12 -19 -10 4 0 11 5 18 9 15 4 -3 5 -11 1 -19z m-39 2 c-12 -7 -19 -19
-17 -27 4 -13 3 -13 -6 0 -8 11 -6 18 6 28 9 6 22 12 27 12 6 -1 2 -6 -10 -13z
m100 -9 c-4 -5 -15 -7 -26 -5 -14 4 -18 2 -14 -9 3 -9 1 -12 -4 -9 -6 3 -10 1
-10 -6 0 -7 -3 -10 -6 -7 -12 13 15 43 40 44 15 1 23 -2 20 -8z m28 -26 c-7
-2 -10 -8 -7 -13 4 -5 -2 -6 -12 -2 -16 6 -17 5 -3 -12 13 -17 13 -18 0 -10
-8 5 -21 10 -28 11 -8 2 -17 6 -20 9 -4 4 0 6 8 4 21 -3 51 11 44 22 -3 5 3 6
12 2 11 -4 13 -8 6 -11z m58 -15 c0 -5 -4 -5 -10 -2 -5 3 -10 14 -10 23 0 15
2 15 10 2 5 -8 10 -19 10 -23z m-24 -23 c5 -27 4 -28 -9 -9 -8 10 -12 25 -10
33 7 17 13 10 19 -24z m56 19 c-6 -3 -10 -8 -8 -12 3 -4 -4 -8 -15 -8 -18 -2
-18 0 3 17 13 10 25 16 28 13 3 -3 -1 -8 -8 -10z m31 -18 c-10 -8 -20 -11 -23
-8 -3 3 1 8 8 10 6 3 10 9 7 14 -4 5 1 6 10 3 14 -6 14 -8 -2 -19z m34 -22 c1
-19 0 -23 -5 -11 -5 13 -11 15 -22 8 -30 -19 -34 -9 -5 10 17 11 30 20 30 20
0 0 1 -12 2 -27z m49 1 c-3 -7 3 -18 12 -23 9 -6 12 -11 5 -11 -6 0 -14 4 -18
10 -3 5 -13 7 -23 4 -16 -5 -16 -5 1 6 9 6 17 16 17 22 0 7 -5 6 -15 -2 -9 -8
-15 -8 -15 -2 0 12 21 21 33 15 5 -3 6 -11 3 -19z m104 -5 c12 -8 10 -9 -7 -4
-14 4 -23 2 -23 -4 0 -6 5 -11 12 -11 6 0 8 -3 5 -6 -4 -4 -13 -1 -22 6 -18
15 -20 0 -2 -19 10 -11 8 -11 -10 0 -12 7 -20 16 -17 20 2 4 -1 9 -8 12 -7 2
-6 3 3 2 9 -1 23 1 30 6 18 11 21 11 39 -2z m25 -18 c-3 -6 -11 -11 -16 -11
-5 0 -4 6 3 14 14 16 24 13 13 -3z m40 1 c-3 -3 -11 0 -18 7 -9 10 -8 11 6 5
10 -3 15 -9 12 -12z m1632 3 c4 -4 -2 -5 -15 -2 -12 3 -20 2 -17 -3 3 -4 -2
-10 -10 -14 -8 -3 -15 -1 -15 5 0 6 -12 -3 -26 -18 -21 -23 -23 -24 -14 -5 7
15 7 22 0 22 -5 0 -10 -7 -10 -15 0 -8 -5 -15 -11 -15 -5 0 -8 4 -5 8 2 4 -11
8 -30 9 -19 0 -34 -4 -34 -9 0 -6 -7 -7 -16 -4 -8 3 -12 2 -9 -4 3 -6 1 -10
-4 -10 -6 0 -11 5 -11 11 0 8 -4 8 -14 0 -7 -6 -20 -9 -29 -5 -8 3 -18 1 -21
-4 -3 -5 10 -8 29 -6 20 1 33 -2 32 -8 -1 -6 5 -13 13 -15 13 -4 13 -3 0 6 -8
6 -12 11 -8 11 3 0 14 3 22 6 12 4 15 2 10 -9 -3 -8 -1 -18 5 -22 7 -3 8 0 5
9 -3 9 -1 16 5 16 6 0 11 -5 11 -12 0 -9 3 -9 12 0 15 15 28 16 28 2 0 -5 -7
-10 -15 -10 -8 0 -15 -5 -15 -12 0 -6 -3 -8 -6 -5 -4 3 -15 2 -24 -3 -13 -7
-21 -5 -30 5 -8 9 -21 13 -34 10 -15 -5 -17 -4 -8 3 11 7 10 11 -3 16 -25 9
-49 -12 -34 -30 13 -16 13 -16 -18 -19 -13 -1 -28 3 -33 10 -12 14 -50 9 -50
-7 0 -5 4 -7 9 -3 5 3 12 2 15 -3 2 -4 -6 -8 -19 -8 -18 0 -22 4 -15 16 4 8 9
17 11 20 1 3 -3 14 -9 26 -10 19 -8 20 21 19 18 -1 37 1 42 4 6 3 19 6 30 7
45 4 160 21 160 24 0 1 16 3 35 6 59 8 69 10 75 16 8 8 32 4 42 -7z m-2 -24
c3 -5 0 -13 -6 -16 -5 -4 -8 -13 -5 -21 3 -7 1 -16 -4 -19 -12 -7 -61 35 -54
47 3 5 12 1 18 -8 13 -18 36 -12 36 9 0 7 -4 6 -10 -3 -5 -8 -12 -11 -17 -7
-4 5 -1 12 7 17 19 12 27 12 35 1z m-1695 -5 c0 -3 -4 -8 -10 -11 -5 -3 -10
-1 -10 4 0 6 5 11 10 11 6 0 10 -2 10 -4z m1583 -26 c15 -7 27 -17 27 -22 0
-13 -16 -9 -30 7 -7 9 -19 14 -27 11 -16 -7 -45 3 -38 14 6 10 35 6 68 -10z
m-306 -32 c-6 -4 -15 -4 -21 -1 -5 4 -7 -1 -3 -10 4 -11 -1 -21 -14 -28 -19
-10 -20 -9 -9 10 6 12 8 26 5 31 -3 6 -1 10 5 10 6 0 8 5 4 12 -4 7 -3 8 4 4
7 -4 12 -2 12 5 0 7 6 4 14 -7 10 -13 11 -21 3 -26z m-114 12 c4 0 6 3 4 8 -3
4 10 7 29 7 30 1 33 -2 30 -25 -5 -38 -15 -57 -31 -57 -11 0 -10 6 5 27 11 16
15 31 11 39 -6 9 -11 10 -15 2 -4 -6 -2 -11 5 -11 16 0 2 -15 -14 -15 -7 -1
-15 4 -19 10 -9 11 -30 -14 -22 -26 2 -4 -3 -9 -11 -13 -8 -3 -17 -1 -21 5 -4
6 -11 6 -20 -2 -7 -6 -11 -16 -7 -23 5 -8 3 -8 -8 0 -12 9 -69 12 -76 4 -7 -6
-30 -6 -45 2 -9 4 -19 4 -22 -1 -7 -10 -25 -9 -42 1 -8 6 -49 4 -49 -2 0 -7
-36 -6 -40 0 -3 5 -12 7 -20 3 -8 -3 -15 -1 -15 5 0 11 18 11 37 -1 6 -4 14
-3 17 2 4 5 14 8 24 6 9 -1 24 1 33 6 9 4 20 4 25 -1 6 -6 24 4 48 26 21 20
36 28 32 19 -3 -9 -2 -14 2 -12 26 14 52 20 89 21 23 1 45 5 49 9 4 4 12 3 18
-3 5 -5 14 -10 19 -10z m-502 -42 c0 -10 2 -10 6 0 2 6 9 12 14 12 16 0 10
-15 -12 -28 -12 -8 -18 -9 -14 -3 3 6 1 11 -4 11 -6 0 -11 5 -11 10 0 15 20
12 21 -2z m529 4 c0 -8 -26 -27 -40 -30 -11 -2 -10 2 3 12 13 10 15 15 5 19
-7 3 -3 4 10 4 12 -1 22 -3 22 -5z"/>
<path d="M4525 129 c6 -9 -21 -20 -29 -11 -4 3 -13 7 -22 8 -11 2 -12 -1 -5
-10 6 -7 8 -16 4 -19 -3 -4 -1 -7 5 -7 7 0 12 5 12 10 0 6 8 5 19 -2 11 -7 18
-15 16 -18 -2 -4 3 -7 11 -7 10 0 11 4 4 11 -5 5 -10 17 -10 26 0 12 2 12 9 1
6 -9 11 -10 15 -2 4 6 2 11 -4 11 -6 0 -9 4 -6 8 3 5 -1 9 -9 9 -8 0 -12 -4
-10 -8z"/>
<path d="M4282 108 c-7 -7 -12 -8 -12 -3 0 4 -10 0 -22 -11 -17 -15 -20 -16
-16 -3 5 11 0 15 -15 15 -12 -1 -29 -6 -37 -11 -8 -5 -22 -10 -30 -12 -8 -1
-16 -7 -18 -12 -2 -6 -8 -11 -13 -11 -6 0 -7 6 -3 13 4 6 -2 3 -14 -7 -24 -20
-31 -36 -9 -17 8 6 16 8 19 6 11 -11 48 -14 53 -4 4 5 11 6 17 3 6 -4 8 -2 4
4 -3 6 -2 13 3 16 5 3 11 0 14 -8 7 -16 28 -16 49 2 10 8 18 8 26 2 7 -6 10
-7 7 -3 -3 3 2 14 11 24 17 19 4 35 -14 17z m8 -13 c-7 -9 -15 -13 -18 -10 -3
3 -12 -1 -20 -7 -21 -18 -40 -18 -47 -1 -5 14 -8 13 -26 -3 -25 -23 -56 -30
-38 -8 6 8 14 12 17 9 3 -3 12 1 20 7 16 14 44 20 37 8 -9 -15 23 -19 35 -5 7
8 16 13 20 10 5 -3 11 -1 15 5 3 5 9 10 12 10 3 0 0 -7 -7 -15z"/>
<path d="M6956 1352 c-3 -5 1 -9 9 -9 8 0 12 4 9 9 -3 4 -7 8 -9 8 -2 0 -6 -4
-9 -8z"/>
<path d="M6741 1146 c-9 -11 -9 -16 1 -22 7 -4 10 -4 6 1 -4 4 -3 14 3 22 6 7
9 13 6 13 -2 0 -10 -6 -16 -14z"/>
<path d="M6815 1150 c-3 -5 -1 -10 4 -10 6 0 11 5 11 10 0 6 -2 10 -4 10 -3 0
-8 -4 -11 -10z"/>
<path d="M6700 1116 c0 -2 8 -10 18 -17 15 -13 16 -12 3 4 -13 16 -21 21 -21
13z"/>
<path d="M6710 1067 c0 -2 6 -10 14 -16 11 -9 16 -9 22 1 4 7 4 10 -1 6 -4 -4
-14 -3 -22 3 -7 6 -13 9 -13 6z"/>
<path d="M6694 1026 c1 -8 5 -18 8 -22 4 -3 5 1 4 10 -1 8 -5 18 -8 22 -4 3
-5 -1 -4 -10z"/>
<path d="M6570 970 c0 -5 5 -10 11 -10 5 0 7 5 4 10 -3 6 -8 10 -11 10 -2 0
-4 -4 -4 -10z"/>
<path d="M6610 969 c0 -5 5 -7 10 -4 6 3 10 8 10 11 0 2 -4 4 -10 4 -5 0 -10
-5 -10 -11z"/>
<path d="M6635 930 c-3 -5 -1 -10 4 -10 6 0 11 5 11 10 0 6 -2 10 -4 10 -3 0
-8 -4 -11 -10z"/>
<path d="M6393 815 c0 -8 4 -12 9 -9 5 3 6 10 3 15 -9 13 -12 11 -12 -6z"/>
<path d="M6213 715 c0 -8 4 -15 9 -15 4 0 8 4 8 9 0 6 -4 12 -8 15 -5 3 -9 -1
-9 -9z"/>
<path d="M6335 719 c-4 -6 -5 -12 -2 -15 2 -3 7 2 10 11 7 17 1 20 -8 4z"/>
<path d="M6153 701 c0 -11 5 -18 9 -15 4 3 5 11 1 19 -7 21 -12 19 -10 -4z"/>
<path d="M6265 690 c-3 -6 1 -7 9 -4 18 7 21 14 7 14 -6 0 -13 -4 -16 -10z"/>
<path d="M6085 669 c-3 -4 2 -6 10 -5 21 3 28 13 10 13 -9 0 -18 -4 -20 -8z"/>
<path d="M6176 668 c3 -4 11 -5 19 -1 21 7 19 12 -4 10 -11 0 -18 -5 -15 -9z"/>
<path d="M6176 637 c3 -10 9 -15 12 -12 3 3 0 11 -7 18 -10 9 -11 8 -5 -6z"/>
<path d="M6150 633 c0 -6 8 -17 18 -24 16 -13 16 -13 2 6 -8 11 -16 22 -17 24
-2 2 -3 0 -3 -6z"/>
<path d="M6000 610 c-9 -6 -10 -10 -3 -10 6 0 15 5 18 10 8 12 4 12 -15 0z"/>
<path d="M6035 612 c3 -3 -1 -12 -7 -21 -8 -10 -4 -9 10 3 26 23 26 23 7 23
-8 0 -13 -3 -10 -5z"/>
<path d="M6059 583 c-13 -17 -13 -17 6 -3 11 8 22 16 24 17 2 2 0 3 -6 3 -6 0
-17 -8 -24 -17z"/>
<path d="M5994 531 c0 -16 4 -27 8 -25 4 2 5 14 3 26 -7 32 -13 32 -11 -1z"/>
<path d="M6050 551 c0 -6 4 -13 10 -16 6 -3 7 1 4 9 -7 18 -14 21 -14 7z"/>
<path d="M5868 525 c10 -15 10 -47 0 -70 -8 -18 -8 -19 5 -3 11 14 17 15 28 5
7 -7 5 -1 -6 12 -11 13 -20 24 -19 25 22 39 22 42 4 42 -10 0 -16 -5 -12 -11z"/>
<path d="M5925 509 c-3 -4 2 -6 10 -5 21 3 28 13 10 13 -9 0 -18 -4 -20 -8z"/>
<path d="M5955 490 c-3 -5 -1 -10 4 -10 6 0 11 5 11 10 0 6 -2 10 -4 10 -3 0
-8 -4 -11 -10z"/>
<path d="M5700 471 c0 -5 7 -12 16 -15 14 -5 15 -4 4 9 -14 17 -20 19 -20 6z"/>
<path d="M5634 426 c1 -8 5 -18 8 -22 4 -3 5 1 4 10 -1 8 -5 18 -8 22 -4 3 -5
-1 -4 -10z"/>
<path d="M5667 434 c-4 -4 -7 -12 -7 -18 0 -6 5 -4 10 4 9 13 11 13 21 0 9
-12 10 -12 7 -1 -5 17 -21 25 -31 15z"/>
<path d="M5720 426 c-6 -6 -10 -15 -10 -20 0 -6 4 -5 9 3 5 8 17 16 26 17 25
4 30 13 6 11 -12 -1 -26 -6 -31 -11z"/>
<path d="M5590 410 c-8 -5 -10 -10 -5 -10 6 0 17 5 25 10 8 5 11 10 5 10 -5 0
-17 -5 -25 -10z"/>
<path d="M5530 390 c0 -5 5 -10 10 -10 6 0 10 5 10 10 0 6 -4 10 -10 10 -5 0
-10 -4 -10 -10z"/>
<path d="M5620 390 c8 -5 20 -10 25 -10 6 0 3 5 -5 10 -8 5 -19 10 -25 10 -5
0 -3 -5 5 -10z"/>
<path d="M5696 387 c3 -10 9 -15 12 -12 3 3 0 11 -7 18 -10 9 -11 8 -5 -6z"/>
<path d="M5616 367 c3 -10 9 -15 12 -12 3 3 0 11 -7 18 -10 9 -11 8 -5 -6z"/>
<path d="M5655 371 c-6 -11 13 -26 22 -17 4 3 1 6 -6 6 -7 0 -9 5 -6 10 3 6 4
10 1 10 -3 0 -7 -4 -11 -9z"/>
<path d="M5550 359 c0 -5 5 -7 10 -4 6 3 10 8 10 11 0 2 -4 4 -10 4 -5 0 -10
-5 -10 -11z"/>
<path d="M5594 362 c3 -5 0 -13 -6 -15 -9 -4 -10 -6 -1 -6 17 -1 25 16 12 25
-7 4 -9 3 -5 -4z"/>
<path d="M5490 350 c0 -5 5 -10 10 -10 6 0 10 5 10 10 0 6 -4 10 -10 10 -5 0
-10 -4 -10 -10z"/>
<path d="M5398 343 c7 -3 16 -2 19 1 4 3 -2 6 -13 5 -11 0 -14 -3 -6 -6z"/>
<path d="M5635 340 c-3 -5 -1 -10 4 -10 6 0 11 5 11 10 0 6 -2 10 -4 10 -3 0
-8 -4 -11 -10z"/>
<path d="M5370 330 c0 -5 5 -10 11 -10 5 0 7 5 4 10 -3 6 -8 10 -11 10 -2 0
-4 -4 -4 -10z"/>
<path d="M5430 331 c0 -6 4 -13 10 -16 6 -3 7 1 4 9 -7 18 -14 21 -14 7z"/>
<path d="M5550 330 c0 -5 5 -10 10 -10 6 0 10 5 10 10 0 6 -4 10 -10 10 -5 0
-10 -4 -10 -10z"/>
<path d="M5482 310 c0 -14 2 -19 5 -12 2 6 2 18 0 25 -3 6 -5 1 -5 -13z"/>
<path d="M5510 326 c0 -3 9 -10 20 -16 11 -6 20 -8 20 -6 0 3 -9 10 -20 16
-11 6 -20 8 -20 6z"/>
<path d="M5335 309 c-9 -13 0 -22 25 -26 22 -3 35 12 19 23 -7 4 -9 3 -5 -4 4
-7 -1 -10 -14 -9 -22 1 -27 13 -7 20 9 4 9 6 0 6 -6 1 -15 -4 -18 -10z"/>
<path d="M5400 310 c0 -5 5 -10 10 -10 6 0 10 5 10 10 0 6 -4 10 -10 10 -5 0
-10 -4 -10 -10z"/>
<path d="M5311 295 c1 -19 18 -51 18 -35 0 8 -4 22 -9 30 -5 8 -9 11 -9 5z"/>
<path d="M5430 290 c0 -5 5 -10 10 -10 6 0 10 5 10 10 0 6 -4 10 -10 10 -5 0
-10 -4 -10 -10z"/>
<path d="M5515 290 c-3 -5 -1 -10 4 -10 6 0 11 5 11 10 0 6 -2 10 -4 10 -3 0
-8 -4 -11 -10z"/>
<path d="M5230 282 c0 -7 -5 -10 -11 -6 -6 3 -3 -6 7 -21 l18 -28 -24 7 c-21
6 -22 5 -8 -4 18 -11 58 5 58 24 0 4 -8 2 -17 -5 -14 -12 -16 -12 -11 2 3 9 2
22 -3 30 -7 11 -9 11 -9 1z"/>
<path d="M5270 280 c0 -6 7 -10 15 -10 8 0 15 2 15 4 0 2 -7 6 -15 10 -8 3
-15 1 -15 -4z"/>
<path d="M5390 270 c0 -5 7 -7 15 -4 8 4 15 8 15 10 0 2 -7 4 -15 4 -8 0 -15
-4 -15 -10z"/>
<path d="M5455 270 c-3 -6 1 -7 9 -4 18 7 21 14 7 14 -6 0 -13 -4 -16 -10z"/>
<path d="M5350 260 c0 -5 7 -10 16 -10 9 0 12 -5 8 -12 -4 -7 -3 -8 4 -4 16
10 15 14 -8 26 -14 7 -20 7 -20 0z"/>
<path d="M5175 250 c-3 -5 1 -20 9 -32 9 -12 16 -18 17 -13 0 6 4 1 9 -10 7
-17 9 -17 9 -3 1 10 -8 22 -19 28 -11 6 -17 16 -14 25 7 17 -1 20 -11 5z"/>
<path d="M5285 250 c-3 -5 -2 -10 4 -10 5 0 13 5 16 10 3 6 2 10 -4 10 -5 0
-13 -4 -16 -10z"/>
<path d="M5090 235 c0 -8 2 -15 4 -15 2 0 6 7 10 15 3 8 1 15 -4 15 -6 0 -10
-7 -10 -15z"/>
<path d="M5141 234 c0 -11 3 -14 6 -6 3 7 2 16 -1 19 -3 4 -6 -2 -5 -13z"/>
<path d="M5060 230 c0 -5 5 -10 11 -10 5 0 7 5 4 10 -3 6 -8 10 -11 10 -2 0
-4 -4 -4 -10z"/>
<path d="M5330 229 c0 -5 5 -7 10 -4 6 3 10 8 10 11 0 2 -4 4 -10 4 -5 0 -10
-5 -10 -11z"/>
<path d="M5015 220 c-3 -5 -1 -10 4 -10 6 0 11 5 11 10 0 6 -2 10 -4 10 -3 0
-8 -4 -11 -10z"/>
<path d="M5110 220 c0 -5 5 -10 10 -10 6 0 10 5 10 10 0 6 -4 10 -10 10 -5 0
-10 -4 -10 -10z"/>
<path d="M5270 219 c0 -5 -6 -7 -12 -3 -7 4 -9 3 -5 -1 13 -15 36 -14 30 1 -6
17 -13 18 -13 3z"/>
<path d="M5297 219 c7 -7 15 -10 18 -7 3 3 -2 9 -12 12 -14 6 -15 5 -6 -5z"/>
<path d="M5050 200 c6 -11 15 -20 20 -20 6 0 2 9 -7 20 -10 11 -19 20 -21 20
-1 0 2 -9 8 -20z"/>
<path d="M5153 209 c-9 -9 -29 -16 -58 -18 -5 -1 -3 -5 5 -10 8 -6 18 -7 22
-5 4 3 8 0 8 -5 0 -6 5 -11 11 -11 8 0 8 4 0 14 -9 11 -6 14 14 14 14 0 22 -5
18 -11 -4 -6 -1 -7 7 -2 10 6 10 11 -3 20 -9 7 -14 15 -10 18 3 4 4 7 2 7 -3
0 -10 -5 -16 -11z"/>
<path d="M5078 203 c7 -3 16 -2 19 1 4 3 -2 6 -13 5 -11 0 -14 -3 -6 -6z"/>
<path d="M5003 193 c9 -2 15 -9 12 -14 -4 -5 -2 -9 3 -9 6 0 12 6 15 13 3 8
-4 13 -22 14 -14 0 -18 -1 -8 -4z"/>
<path d="M4953 167 c4 -10 0 -20 -11 -26 -14 -8 -15 -12 -4 -23 11 -11 13 -11
10 1 -2 7 3 16 11 19 8 3 11 0 7 -7 -5 -7 -1 -8 10 -4 11 4 13 8 6 11 -7 2
-12 10 -12 17 0 8 -5 17 -12 21 -8 5 -9 2 -5 -9z"/>
<path d="M5047 164 c5 -13 3 -15 -7 -9 -9 5 -11 4 -6 -3 4 -7 11 -12 17 -12
12 0 12 27 -1 35 -6 4 -7 -1 -3 -11z"/>
<path d="M3285 160 c-2 -3 2 -12 8 -20 14 -18 50 -23 44 -6 -3 6 -10 10 -17 8
-10 -2 -11 0 -2 10 8 11 6 14 -9 14 -11 0 -22 -3 -24 -6z"/>
<path d="M5075 160 c3 -5 8 -10 11 -10 2 0 4 5 4 10 0 6 -5 10 -11 10 -5 0 -7
-4 -4 -10z"/>
<path d="M3190 150 c0 -5 5 -10 10 -10 6 0 10 5 10 10 0 6 -4 10 -10 10 -5 0
-10 -4 -10 -10z"/>
<path d="M5002 148 c2 -6 10 -13 16 -14 7 -1 8 0 2 3 -5 2 -8 9 -4 14 3 5 0 9
-6 9 -7 0 -10 -5 -8 -12z"/>
<path d="M4875 140 c-3 -5 -2 -17 3 -26 8 -14 10 -12 10 9 0 29 -3 33 -13 17z"/>
<path d="M3270 130 c0 -5 5 -10 10 -10 6 0 10 5 10 10 0 6 -4 10 -10 10 -5 0
-10 -4 -10 -10z"/>
<path d="M3381 113 c-15 -33 -14 -38 6 -22 11 10 14 10 9 2 -5 -9 1 -13 18
-14 27 -2 44 -5 49 -9 1 -1 18 -4 37 -6 121 -13 156 -11 145 6 -10 16 16 22
32 8 18 -14 73 -20 73 -7 0 5 3 8 8 8 18 -3 29 2 29 15 0 9 -9 13 -26 11 -14
-2 -30 0 -36 3 -14 9 -65 9 -59 1 2 -4 -3 -9 -11 -12 -10 -4 -12 -1 -8 10 4
11 2 14 -8 11 -8 -3 -14 -16 -13 -31 1 -15 -3 -24 -8 -21 -4 3 -5 10 -2 16 4
7 2 8 -4 4 -15 -9 -54 12 -47 25 4 5 3 10 -2 10 -4 1 -17 3 -28 4 -11 2 -24 4
-30 5 -22 5 -31 -1 -31 -20 0 -11 4 -20 8 -20 8 0 12 17 8 35 -1 5 8 1 19 -9
12 -11 21 -14 21 -8 0 7 5 12 11 12 5 0 7 -4 4 -10 -3 -5 -2 -10 2 -10 5 0 9
-10 10 -22 2 -23 2 -23 -11 1 -8 14 -16 19 -20 13 -4 -6 -14 -8 -23 -5 -11 5
-14 3 -8 -6 6 -10 3 -11 -14 -2 -12 7 -27 9 -33 5 -7 -5 -8 -3 -3 6 6 9 2 10
-15 5 -20 -6 -22 -5 -17 17 9 33 -17 33 -32 1z m353 -34 c-7 -12 -42 -6 -57
11 -6 7 -7 10 -2 7 6 -3 17 -2 25 3 16 10 43 -7 34 -21z m-140 -7 c3 -5 -1 -9
-9 -9 -8 0 -12 4 -9 9 3 4 7 8 9 8 2 0 6 -4 9 -8z"/>
<path d="M3710 90 c0 -5 5 -10 11 -10 5 0 7 5 4 10 -3 6 -8 10 -11 10 -2 0 -4
-4 -4 -10z"/>
<path d="M3437 129 c-24 -14 -21 -24 8 -25 26 -2 30 3 17 23 -5 8 -13 8 -25 2z"/>
<path d="M3816 98 c3 -5 10 -6 15 -3 13 9 11 12 -6 12 -8 0 -12 -4 -9 -9z"/>
<path d="M3914 98 c-4 -7 -4 -10 1 -6 4 4 15 2 24 -5 14 -11 14 -10 2 6 -16
20 -18 21 -27 5z"/>
<path d="M4006 103 c-4 -5 -12 -8 -17 -8 -16 0 -10 -19 7 -21 9 -1 13 0 10 3
-3 4 -1 12 5 20 12 14 8 18 -5 6z"/>
<path d="M3880 85 c-11 -13 -11 -18 0 -28 10 -9 11 -9 6 1 -4 7 -2 19 4 27 7
8 10 15 7 15 -2 0 -10 -7 -17 -15z"/>
</g>
</svg>
